<svg width="703" height="184" viewBox="0 0 703 184" fill="none" xmlns="http://www.w3.org/2000/svg">
<path d="M263.994 54.9385C271.911 54.9385 278.973 56.1827 285.182 58.667C291.39 61.1409 296.462 64.2453 300.41 67.9795C304.368 71.7035 306.854 75.501 307.869 79.376C308.879 83.2507 308.144 86.5844 305.66 89.376C304.421 90.7821 302.249 92.1414 299.14 93.459C296.041 94.7819 292.707 95.8701 289.14 96.7295C285.567 97.5785 282.463 97.9277 279.827 97.7715C279.978 93.2717 279.473 88.8498 278.307 84.501C277.14 80.1572 275.082 76.5837 272.14 73.792C269.192 71.0004 265.16 69.6045 260.035 69.6045C255.535 69.6046 251.77 70.8497 248.744 73.334C245.713 75.8079 244.202 78.9072 244.202 82.626C244.202 86.3654 246.213 89.9748 250.244 93.459C254.286 96.9485 259.723 100.324 266.557 103.584C271.666 106.074 276.937 108.558 282.369 111.042C287.812 113.516 292.817 116.266 297.39 119.292C301.973 122.323 305.66 126.011 308.452 130.354C311.244 134.703 312.64 140.058 312.64 146.417C312.64 153.407 310.39 159.688 305.89 165.271C301.39 170.855 295.494 175.282 288.202 178.542C280.91 181.802 273.145 183.438 264.91 183.438C257.619 183.438 250.791 182.355 244.432 180.188C238.067 178.011 232.64 175.178 228.14 171.688C223.64 168.188 220.65 164.349 219.182 160.167C217.708 155.974 218.291 151.855 220.932 147.813C222.791 145.178 225.541 142.579 229.182 140.021C232.833 137.454 236.983 135.938 241.64 135.479C241.483 141.995 242.806 147.74 245.598 152.709C248.389 157.667 251.838 161.511 255.952 164.229C260.062 166.938 263.827 168.292 267.244 168.292C272.062 168.292 276.02 167.287 279.119 165.271C282.228 163.261 283.785 160.391 283.785 156.667C283.785 153.558 281.879 150.573 278.077 147.709C274.27 144.834 269.103 141.73 262.577 138.396C256.062 135.053 248.77 131.126 240.702 126.626C233.879 122.907 228.374 118.49 224.182 113.376C219.984 108.251 217.89 102.037 217.89 94.7295C217.89 87.9118 219.9 81.4742 223.932 75.417C227.973 69.3651 233.483 64.4381 240.473 60.6465C247.457 56.8444 255.296 54.9385 263.994 54.9385Z" fill="black"/>
<path d="M510.05 55.167C525.409 55.167 537.513 59.5939 546.362 68.4375C555.206 77.2864 559.706 90.5575 559.862 108.25V148.271C559.862 152.62 560.055 157.084 560.445 161.667C560.831 166.25 561.372 170.329 562.07 173.896C562.779 177.469 563.519 179.949 564.3 181.334H544.279C539.456 181.334 535.341 179.636 531.925 176.229C528.519 172.813 526.82 168.62 526.82 163.646V108.25C526.82 106.542 526.743 104.912 526.592 103.354C521.311 105.219 515.763 107.932 509.945 111.5C504.122 115.073 499.196 119.375 495.154 124.417C491.123 129.459 489.112 135.162 489.112 141.521C489.112 148.511 490.737 153.594 493.987 156.771C497.248 159.954 501.285 161.354 506.092 160.979C510.909 160.594 515.57 158.531 520.07 154.792C519.445 160.849 517.456 166.016 514.112 170.292C510.779 174.558 506.904 177.813 502.487 180.062C498.071 182.313 493.763 183.438 489.57 183.438C482.737 183.437 476.831 181.729 471.862 178.312C466.904 174.896 463.029 170.474 460.237 165.042C457.446 159.615 456.05 153.948 456.05 148.042C456.05 140.599 458.102 134.162 462.217 128.729C466.326 123.303 471.758 118.573 478.508 114.542C485.258 110.5 492.664 106.85 500.737 103.584C508.805 100.324 516.872 97.0625 524.945 93.8125C523.404 88.0628 520.534 83.6409 516.342 80.542C512.144 77.4326 506.404 75.875 499.112 75.875C494.305 75.875 489.842 76.7293 485.717 78.4375C481.602 80.1458 478.269 82.4793 475.717 85.4375C473.16 88.3854 471.883 91.6413 471.883 95.209C467.841 92.8757 465.472 89.5364 464.779 85.1875C464.081 80.8438 465.242 76.3437 468.258 71.6875C471.284 67.0365 476.248 63.1198 483.154 59.9375C490.071 56.7605 499.034 55.167 510.05 55.167Z" fill="black"/>
<path d="M137.583 9.3125C137.583 12.5624 137.385 16.7501 137 21.875C136.609 27 135.834 32.3236 134.667 37.834C133.5 43.3339 131.672 48.2608 129.188 52.6045C125.156 60.0523 118.755 66.4115 109.979 71.6875C101.214 76.9687 91.7138 81.1621 81.4795 84.2715C88.6147 85.2038 94.5883 87.7247 99.3955 91.834C104.213 95.9486 108.521 101.032 112.312 107.084C116.115 113.126 119.958 119.563 123.833 126.396C127.718 133.23 132.26 139.907 137.458 146.417C142.651 152.933 149.13 158.521 156.896 163.188L123.375 183.209C117.792 180.725 112.782 176.766 108.354 171.334C103.938 165.907 99.901 159.74 96.25 152.834C92.6094 145.917 89.0836 138.855 85.667 131.646C82.2503 124.428 78.7552 117.787 75.1875 111.729C71.6146 105.677 67.6979 100.828 63.4375 97.1875C59.1719 93.5366 54.401 91.7865 49.125 91.9375V90.542C49.276 87.7503 50.1253 85.6621 51.667 84.2715C57.8753 82.4121 64.0053 79.7711 70.0625 76.3545C76.1145 72.9379 81.5105 69.0579 86.25 64.709C90.9844 60.3652 94.3594 55.7868 96.375 50.9795C98.8594 45.0785 100.406 39.1042 101.021 33.0625C101.645 27.0105 101.881 21.4586 101.729 16.417C101.573 11.3649 101.5 7.36491 101.5 4.41699H137.583C137.583 4.41699 137.583 6.0523 137.583 9.3125Z" fill="black"/>
<path d="M184.379 57.5C189.337 57.5001 193.525 59.2084 196.941 62.625C200.358 66.0312 202.066 70.2189 202.066 75.1875V148.042C202.066 152.391 202.296 156.854 202.754 161.438C203.223 166.01 203.806 170.079 204.504 173.646C205.212 177.219 205.868 179.703 206.482 181.104H186.691C181.733 181.104 177.546 179.396 174.129 175.979C170.712 172.563 169.004 168.375 169.004 163.417V90.542C169.004 86.1982 168.764 81.7399 168.295 77.167C167.837 72.5837 167.295 68.5104 166.67 64.9375C166.055 61.37 165.363 58.8906 164.587 57.5H184.379Z" fill="black"/>
<path d="M341.036 0C346.005 0 350.203 1.74512 353.62 5.22949C357.037 8.71906 358.745 12.8708 358.745 17.6885V88.459C366.813 81.0008 373.714 74.8291 379.453 69.9385C385.203 65.0531 390.557 61.3704 395.516 58.8965C400.484 56.4121 405.917 55.167 411.808 55.167C419.568 55.167 425.464 56.5323 429.495 59.251C433.537 61.9593 436.292 65.7612 437.766 70.6465C439.234 75.537 440.047 81.3546 440.203 88.1045C440.37 94.8545 440.453 102.266 440.453 110.334V148.042C440.453 152.391 440.682 156.855 441.141 161.438C441.609 166.011 442.193 170.079 442.891 173.646C443.583 177.219 444.245 179.703 444.87 181.104H425.078C420.12 181.104 415.932 179.396 412.516 175.979C409.099 172.563 407.391 168.375 407.391 163.417V107.084C407.391 97.1569 406.104 90.016 403.536 85.667C400.979 81.3234 397.453 79.2666 392.953 79.501C388.453 79.7249 383.291 81.8132 377.474 85.7715C371.651 89.7297 365.412 95.0526 358.745 101.729V148.042C358.745 152.391 358.974 156.855 359.433 161.438C359.901 166.011 360.485 170.079 361.183 173.646C361.875 177.219 362.536 179.703 363.161 181.104H343.37C338.412 181.104 334.224 179.396 330.808 175.979C327.391 172.563 325.683 168.375 325.683 163.417V33.042C325.683 28.6983 325.442 24.2399 324.974 19.667C324.515 15.0839 323.974 11.0529 323.349 7.56348C322.724 4.06348 322.026 1.54167 321.266 0H341.036Z" fill="black"/>
<path d="M669.062 55.167C676.812 55.167 682.698 56.5312 686.729 59.25C690.771 61.9583 693.526 65.7611 695 70.6465C696.484 75.537 697.302 81.3546 697.458 88.1045C697.609 94.8545 697.688 102.266 697.688 110.334V148.042C697.688 152.391 697.917 156.854 698.375 161.438C698.844 166.01 699.427 170.079 700.125 173.646C700.833 177.219 701.49 179.703 702.104 181.104H682.333C677.359 181.104 673.167 179.396 669.75 175.979C666.333 172.563 664.625 168.375 664.625 163.417L664.854 107.084C664.854 96.9902 663.573 89.8076 661.021 85.542C658.463 81.2817 654.937 79.2656 650.438 79.5C645.938 79.724 640.734 81.8132 634.833 85.7715C628.927 89.7298 622.646 95.0526 615.979 101.729V148.042C615.979 152.391 616.209 156.854 616.667 161.438C617.136 166.01 617.719 170.079 618.417 173.646C619.125 177.219 619.781 179.703 620.396 181.104H600.604C595.646 181.104 591.459 179.396 588.042 175.979C584.625 172.563 582.917 168.375 582.917 163.417V90.542C582.917 86.1982 582.677 81.7399 582.208 77.167C581.75 72.5837 581.208 68.5104 580.583 64.9375C579.968 61.37 579.276 58.8906 578.5 57.5H598.292C603.25 57.5001 607.438 59.2084 610.854 62.625C614.271 66.0312 615.979 70.2189 615.979 75.1875V88.459C624.047 81.0007 630.948 74.8281 636.688 69.9375C642.437 65.0522 647.792 61.3704 652.75 58.8965C657.719 56.4121 663.156 55.167 669.062 55.167Z" fill="black"/>
<path d="M27.2295 4.41699C32.1981 4.41707 36.3858 6.1254 39.792 9.54199C43.2085 12.9585 44.9169 17.0731 44.917 21.875V138.5C44.917 141.917 45.1094 146.146 45.5 151.188C45.8854 156.229 46.6979 161.433 47.9375 166.792C49.1875 172.141 51.2084 176.833 54 180.875H26.542C21.568 180.875 17.3747 179.167 13.958 175.75C10.5416 172.333 8.83301 168.146 8.83301 163.188V48.417C8.83301 45.4743 8.71386 41.3651 8.47949 36.084C8.25553 30.8079 7.52051 25.3021 6.27051 19.5625C5.03091 13.8127 2.94264 8.76586 0 4.41699H27.2295Z" fill="black"/>
<path d="M211.837 4.41699C207.806 13.891 204.357 20.7611 201.482 25.0215C198.608 29.2869 195.774 32.042 192.982 33.292C190.191 34.5315 186.931 35.224 183.212 35.375H166.212C170.254 26.0731 173.702 19.2454 176.566 14.8965C179.441 10.5527 182.275 7.76107 185.066 6.52148C187.858 5.27156 191.118 4.57327 194.857 4.41699H211.837Z" fill="black"/>
</svg>
