<svg width="25" height="21" viewBox="0 0 25 21" fill="none" xmlns="http://www.w3.org/2000/svg">
<path d="M24.288 14.976C24.496 14.976 24.656 15.072 24.768 15.264C24.896 15.456 24.96 15.72 24.96 16.056C24.96 16.68 24.808 17.176 24.504 17.544C23.736 18.472 22.96 19.192 22.176 19.704C21.392 20.2 20.464 20.448 19.392 20.448C18.208 20.448 17.24 20.104 16.488 19.416C15.736 18.712 15.032 17.624 14.376 16.152C13.896 15.096 13.496 14.312 13.176 13.8C12.872 13.272 12.568 12.904 12.264 12.696C11.96 12.472 11.576 12.336 11.112 12.288L10.848 14.064C10.512 16.352 9.856 18 8.88 19.008C7.92 20.016 6.592 20.52 4.896 20.52C3.792 20.52 2.808 20.256 1.944 19.728C1.096 19.184 0.504 18.496 0.168 17.664C0.056 17.376 0 17.064 0 16.728C0 16.248 0.112 15.832 0.336 15.48C0.56 15.128 0.848 14.952 1.2 14.952C1.408 14.952 1.584 15.008 1.728 15.12C1.872 15.216 2.008 15.392 2.136 15.648C2.632 16.576 3.064 17.224 3.432 17.592C3.816 17.96 4.288 18.144 4.848 18.144C5.488 18.144 6.032 17.856 6.48 17.28C6.944 16.688 7.272 15.784 7.464 14.568L7.8 12.288H7.416C7.048 12.288 6.76 12.184 6.552 11.976C6.344 11.768 6.24 11.48 6.24 11.112C6.24 10.696 6.344 10.368 6.552 10.128C6.776 9.872 7.048 9.744 7.368 9.744H8.16C8.272 8.96 8.352 8.416 8.4 8.112L9.144 2.712C8.728 2.664 8.336 2.64 7.968 2.64C6.608 2.64 5.576 2.88 4.872 3.36C4.168 3.824 3.816 4.496 3.816 5.376C3.816 5.776 3.856 6.104 3.936 6.36C4.032 6.6 4.152 6.872 4.296 7.176C4.36 7.304 4.392 7.448 4.392 7.608C4.392 7.96 4.224 8.272 3.888 8.544C3.568 8.8 3.208 8.928 2.808 8.928C2.296 8.928 1.92 8.704 1.68 8.256C1.2 7.408 0.96 6.496 0.96 5.52C0.96 4.512 1.232 3.592 1.776 2.76C2.336 1.928 3.176 1.264 4.296 0.768C5.416 0.256 6.8 0 8.448 0C9.168 0 9.824 0.04 10.416 0.12C11.024 0.200001 11.688 0.352001 12.408 0.576001C13.192 0.816001 13.584 1.264 13.584 1.92C13.584 2.8 13.208 3.24 12.456 3.24L11.52 9.696C13.392 9.504 14.912 8.704 16.08 7.296C17.264 5.872 18.248 3.944 19.032 1.512C19.176 1.064 19.416 0.720001 19.752 0.480001C20.104 0.24 20.544 0.12 21.072 0.12C21.52 0.12 21.864 0.224 22.104 0.432C22.36 0.624001 22.488 0.904001 22.488 1.272C22.488 1.384 22.456 1.568 22.392 1.824C21.592 4.464 20.448 6.56 18.96 8.112C17.472 9.664 15.848 10.696 14.088 11.208C14.696 11.352 15.192 11.568 15.576 11.856C15.976 12.144 16.312 12.504 16.584 12.936C16.856 13.352 17.168 13.936 17.52 14.688C18.016 15.744 18.48 16.496 18.912 16.944C19.344 17.376 19.848 17.592 20.424 17.592C20.936 17.592 21.424 17.424 21.888 17.088C22.352 16.736 22.936 16.144 23.64 15.312C23.832 15.088 24.048 14.976 24.288 14.976Z" fill="#002CBE"/>
</svg>
