<svg width="73" height="24" viewBox="0 0 73 24" fill="none" xmlns="http://www.w3.org/2000/svg">
<path d="M64.1775 22.68C63.5695 22.68 63.1375 22.36 62.8815 21.72C62.6415 21.08 62.5215 20.056 62.5215 18.648C62.5215 16.568 62.8175 14.592 63.4095 12.72C63.5535 12.256 63.7855 11.92 64.1055 11.712C64.4415 11.488 64.9055 11.376 65.4975 11.376C65.8175 11.376 66.0415 11.416 66.1695 11.496C66.2975 11.576 66.3615 11.728 66.3615 11.952C66.3615 12.208 66.2415 12.784 66.0015 13.68C65.8415 14.32 65.7135 14.88 65.6175 15.36C65.5215 15.84 65.4415 16.432 65.3775 17.136C65.9055 15.76 66.4975 14.64 67.1535 13.776C67.8095 12.912 68.4495 12.296 69.0735 11.928C69.7135 11.56 70.2975 11.376 70.8255 11.376C71.3375 11.376 71.7215 11.512 71.9775 11.784C72.2495 12.04 72.3855 12.424 72.3855 12.936C72.3855 13.352 72.2975 14.136 72.1215 15.288C71.9615 16.264 71.8335 17.192 71.7375 18.072C71.6415 18.936 71.5935 19.904 71.5935 20.976C71.5935 21.584 71.4655 22.024 71.2095 22.296C70.9695 22.552 70.5695 22.68 70.0095 22.68C69.4815 22.68 69.0975 22.544 68.8575 22.272C68.6175 22 68.4975 21.592 68.4975 21.048C68.4975 20.408 68.6095 19.352 68.8335 17.88C69.0255 16.6 69.1215 15.784 69.1215 15.432C69.1215 15.176 69.0335 15.048 68.8575 15.048C68.6495 15.048 68.3535 15.32 67.9695 15.864C67.6015 16.392 67.2175 17.096 66.8175 17.976C66.4335 18.856 66.1215 19.784 65.8815 20.76C65.7055 21.512 65.4975 22.024 65.2575 22.296C65.0335 22.552 64.6735 22.68 64.1775 22.68Z" fill="black"/>
<path d="M54.1527 22.6801C53.1607 22.6801 52.3687 22.3201 51.7767 21.6001C51.1847 20.8801 50.8887 19.9361 50.8887 18.7681C50.8887 17.4881 51.1847 16.2801 51.7767 15.1441C52.3687 13.9921 53.1527 13.0721 54.1287 12.3841C55.1207 11.6801 56.1687 11.3281 57.2727 11.3281C57.6247 11.3281 57.8567 11.4001 57.9687 11.5441C58.0967 11.6721 58.2007 11.9121 58.2807 12.2641C58.6167 12.2001 58.9687 12.1681 59.3367 12.1681C60.1207 12.1681 60.5127 12.4481 60.5127 13.0081C60.5127 13.3441 60.3927 14.1441 60.1527 15.4081C59.7847 17.2481 59.6007 18.5281 59.6007 19.2481C59.6007 19.4881 59.6567 19.6801 59.7687 19.8241C59.8967 19.9681 60.0567 20.0401 60.2487 20.0401C60.5527 20.0401 60.9207 19.8481 61.3527 19.4641C61.7847 19.0641 62.3687 18.4241 63.1047 17.5441C63.2967 17.3201 63.5127 17.2081 63.7527 17.2081C63.9607 17.2081 64.1207 17.3041 64.2327 17.4961C64.3607 17.6881 64.4247 17.9521 64.4247 18.2881C64.4247 18.9281 64.2727 19.4241 63.9687 19.7761C63.3127 20.5921 62.6167 21.2801 61.8807 21.8401C61.1447 22.4001 60.4327 22.6801 59.7447 22.6801C59.2167 22.6801 58.7287 22.5041 58.2807 22.1521C57.8487 21.7841 57.5207 21.2881 57.2967 20.6641C56.4647 22.0081 55.4167 22.6801 54.1527 22.6801ZM55.0167 20.2561C55.3687 20.2561 55.7047 20.0481 56.0247 19.6321C56.3447 19.2161 56.5767 18.6641 56.7207 17.9761L57.6087 13.5601C56.9367 13.5761 56.3127 13.8321 55.7367 14.3281C55.1767 14.8081 54.7287 15.4481 54.3927 16.2481C54.0567 17.0481 53.8887 17.8961 53.8887 18.7921C53.8887 19.2881 53.9847 19.6561 54.1767 19.8961C54.3847 20.1361 54.6647 20.2561 55.0167 20.2561Z" fill="black"/>
<path d="M52.4734 17.208C52.6814 17.208 52.8414 17.304 52.9534 17.496C53.0814 17.688 53.1454 17.952 53.1454 18.288C53.1454 18.928 52.9934 19.424 52.6894 19.776C51.9534 20.624 51.1934 21.32 50.4094 21.864C49.6414 22.408 48.7614 22.68 47.7694 22.68C46.9534 22.68 46.3374 22.448 45.9214 21.984C45.5054 21.504 45.2974 20.816 45.2974 19.92C45.2974 19.472 45.4094 18.672 45.6334 17.52C45.8414 16.512 45.9454 15.816 45.9454 15.432C45.9454 15.176 45.8574 15.048 45.6814 15.048C45.4734 15.048 45.1774 15.32 44.7934 15.864C44.4094 16.392 44.0254 17.096 43.6414 17.976C43.2574 18.856 42.9454 19.784 42.7054 20.76C42.4014 22.04 41.6494 22.68 40.4494 22.68C39.9694 22.68 39.6494 22.512 39.4894 22.176C39.3454 21.824 39.2734 21.2 39.2734 20.304C39.2734 19.792 39.2814 19.384 39.2974 19.08L39.3214 17.16C39.3214 14.696 39.5694 12.128 40.0654 9.456C40.5774 6.784 41.3214 4.544 42.2974 2.736C43.2894 0.912 44.4734 0 45.8494 0C46.5854 0 47.1774 0.32 47.6254 0.960001C48.0894 1.584 48.3214 2.4 48.3214 3.408C48.3214 5.024 47.8494 6.704 46.9054 8.448C45.9614 10.176 44.4254 12.2 42.2974 14.52C42.2494 15.352 42.2254 16.208 42.2254 17.088C42.7534 15.728 43.3374 14.624 43.9774 13.776C44.6334 12.912 45.2734 12.296 45.8974 11.928C46.5374 11.56 47.1214 11.376 47.6494 11.376C48.6894 11.376 49.2094 11.896 49.2094 12.936C49.2094 13.56 49.0334 14.688 48.6814 16.32C48.3774 17.712 48.2254 18.632 48.2254 19.08C48.2254 19.72 48.4574 20.04 48.9214 20.04C49.2414 20.04 49.6174 19.848 50.0494 19.464C50.4974 19.064 51.0894 18.424 51.8254 17.544C52.0174 17.32 52.2334 17.208 52.4734 17.208ZM45.3454 2.376C45.0574 2.376 44.7374 2.792 44.3854 3.624C44.0334 4.44 43.6894 5.552 43.3534 6.96C43.0334 8.352 42.7694 9.872 42.5614 11.52C43.5534 10.352 44.3694 9.08 45.0094 7.704C45.6654 6.328 45.9934 5.08 45.9934 3.96C45.9934 3.448 45.9374 3.056 45.8254 2.784C45.7134 2.512 45.5534 2.376 45.3454 2.376Z" fill="black"/>
<path d="M33.3761 23.2081C32.5441 23.2081 31.9041 23.0161 31.4561 22.6321C31.0241 22.2481 30.8081 21.8161 30.8081 21.3361C30.8081 20.9201 30.9601 20.5601 31.2641 20.2561C31.5681 19.9521 32.0161 19.8001 32.6081 19.8001C32.8161 19.8001 33.0561 19.8241 33.3281 19.8721C33.6161 19.9041 33.8321 19.9281 33.9761 19.9441C33.9601 19.5281 33.8641 19.1361 33.6881 18.7681C33.5281 18.4001 33.3201 18.0481 33.0641 17.7121C32.8081 17.3601 32.5681 17.0561 32.3441 16.8001C31.8481 17.7441 31.3521 18.5281 30.8561 19.1521C30.3761 19.7761 29.8481 20.3681 29.2721 20.9281C28.9841 21.2161 28.6801 21.3601 28.3601 21.3601C28.1041 21.3601 27.8961 21.2721 27.7361 21.0961C27.5761 20.9041 27.4961 20.6721 27.4961 20.4001C27.4961 20.0801 27.6081 19.7841 27.8321 19.5121L28.1441 19.1281C29.0241 18.0401 29.6881 17.1441 30.1361 16.4401C30.4081 15.9761 30.7281 15.3601 31.0961 14.5921C31.4641 13.8081 31.8241 13.0001 32.1761 12.1681C32.4801 11.4641 33.1121 11.1121 34.0721 11.1121C34.5201 11.1121 34.8321 11.1521 35.0081 11.2321C35.1841 11.3121 35.2721 11.4401 35.2721 11.6161C35.2721 11.7121 35.2401 11.8641 35.1761 12.0721C35.1121 12.2801 35.0241 12.4881 34.9121 12.6961C34.6241 13.2721 34.4801 13.7601 34.4801 14.1601C34.4801 14.4001 34.5601 14.6641 34.7201 14.9521C34.8961 15.2401 35.1601 15.6001 35.5121 16.0321C36.0241 16.7041 36.4081 17.2801 36.6641 17.7601C36.9361 18.2241 37.0721 18.7361 37.0721 19.2961C37.0721 19.4561 37.0561 19.6801 37.0241 19.9681C37.8081 19.6641 38.7281 18.8561 39.7841 17.5441C39.9761 17.3201 40.1921 17.2081 40.4321 17.2081C40.6401 17.2081 40.8001 17.3041 40.9121 17.4961C41.0401 17.6881 41.1041 17.9521 41.1041 18.2881C41.1041 18.8961 40.9521 19.3921 40.6481 19.7761C39.8481 20.7681 39.0801 21.4481 38.3441 21.8161C37.6241 22.1681 36.7281 22.3601 35.6561 22.3921C35.0161 22.9361 34.2561 23.2081 33.3761 23.2081Z" fill="black"/>
<path d="M26.1504 9.7921C25.4784 9.7921 24.9744 9.6401 24.6384 9.3361C24.3024 9.0161 24.1344 8.5761 24.1344 8.0161C24.1344 7.4561 24.3504 6.9921 24.7824 6.6241C25.2304 6.2401 25.7824 6.0481 26.4384 6.0481C27.0304 6.0481 27.5104 6.1921 27.8784 6.4801C28.2464 6.7681 28.4304 7.1761 28.4304 7.7041C28.4304 8.3441 28.2224 8.8561 27.8064 9.2401C27.3904 9.6081 26.8384 9.7921 26.1504 9.7921ZM25.9584 22.6801C24.9184 22.6801 24.1584 22.3121 23.6784 21.5761C23.2144 20.8401 22.9824 19.8641 22.9824 18.6481C22.9824 17.9281 23.0704 17.0081 23.2464 15.8881C23.4384 14.7521 23.6784 13.6961 23.9664 12.7201C24.1104 12.2081 24.3024 11.8561 24.5424 11.6641C24.7824 11.4721 25.1664 11.3761 25.6944 11.3761C26.5104 11.3761 26.9184 11.6481 26.9184 12.1921C26.9184 12.5921 26.7664 13.5201 26.4624 14.9761C26.0784 16.7361 25.8864 17.9281 25.8864 18.5521C25.8864 19.0321 25.9504 19.4001 26.0784 19.6561C26.2064 19.9121 26.4224 20.0401 26.7264 20.0401C27.0144 20.0401 27.3744 19.8401 27.8064 19.4401C28.2384 19.0401 28.8144 18.4081 29.5344 17.5441C29.7264 17.3201 29.9424 17.2081 30.1824 17.2081C30.3904 17.2081 30.5504 17.3041 30.6624 17.4961C30.7904 17.6881 30.8544 17.9521 30.8544 18.2881C30.8544 18.9281 30.7024 19.4241 30.3984 19.7761C28.8144 21.7121 27.3344 22.6801 25.9584 22.6801Z" fill="black"/>
<path d="M24.288 17.2082C24.496 17.2082 24.656 17.3042 24.768 17.4962C24.896 17.6882 24.96 17.9522 24.96 18.2882C24.96 18.9122 24.808 19.4082 24.504 19.7762C23.736 20.7042 22.96 21.4242 22.176 21.9362C21.392 22.4322 20.464 22.6802 19.392 22.6802C18.208 22.6802 17.24 22.3362 16.488 21.6482C15.736 20.9442 15.032 19.8562 14.376 18.3842C13.896 17.3282 13.496 16.5442 13.176 16.0322C12.872 15.5042 12.568 15.1362 12.264 14.9282C11.96 14.7042 11.576 14.5682 11.112 14.5202L10.848 16.2962C10.512 18.5842 9.856 20.2322 8.88 21.2402C7.92 22.2482 6.592 22.7522 4.896 22.7522C3.792 22.7522 2.808 22.4882 1.944 21.9602C1.096 21.4162 0.504 20.7282 0.168 19.8962C0.056 19.6082 0 19.2962 0 18.9602C0 18.4802 0.112 18.0642 0.336 17.7122C0.56 17.3602 0.848 17.1842 1.2 17.1842C1.408 17.1842 1.584 17.2402 1.728 17.3522C1.872 17.4482 2.008 17.6242 2.136 17.8802C2.632 18.8082 3.064 19.4562 3.432 19.8242C3.816 20.1922 4.288 20.3762 4.848 20.3762C5.488 20.3762 6.032 20.0882 6.48 19.5122C6.944 18.9202 7.272 18.0162 7.464 16.8002L7.8 14.5202H7.416C7.048 14.5202 6.76 14.4162 6.552 14.2082C6.344 14.0002 6.24 13.7122 6.24 13.3442C6.24 12.9282 6.344 12.6002 6.552 12.3602C6.776 12.1042 7.048 11.9762 7.368 11.9762H8.16C8.272 11.1922 8.352 10.6482 8.4 10.3442L9.144 4.94418C8.728 4.89618 8.336 4.87218 7.968 4.87218C6.608 4.87218 5.576 5.11218 4.872 5.59218C4.168 6.05618 3.816 6.72818 3.816 7.60818C3.816 8.00818 3.856 8.33618 3.936 8.59218C4.032 8.83218 4.152 9.10418 4.296 9.40818C4.36 9.53618 4.392 9.68018 4.392 9.84018C4.392 10.1922 4.224 10.5042 3.888 10.7762C3.568 11.0322 3.208 11.1602 2.808 11.1602C2.296 11.1602 1.92 10.9362 1.68 10.4882C1.2 9.64018 0.96 8.72818 0.96 7.75218C0.96 6.74418 1.232 5.82418 1.776 4.99218C2.336 4.16018 3.176 3.49618 4.296 3.00018C5.416 2.48818 6.8 2.23218 8.448 2.23218C9.168 2.23218 9.824 2.27218 10.416 2.35218C11.024 2.43218 11.688 2.58418 12.408 2.80818C13.192 3.04818 13.584 3.49618 13.584 4.15218C13.584 5.03218 13.208 5.47218 12.456 5.47218L11.52 11.9282C13.392 11.7362 14.912 10.9362 16.08 9.52818C17.264 8.10418 18.248 6.17618 19.032 3.74418C19.176 3.29618 19.416 2.95218 19.752 2.71218C20.104 2.47218 20.544 2.35218 21.072 2.35218C21.52 2.35218 21.864 2.45618 22.104 2.66418C22.36 2.85618 22.488 3.13618 22.488 3.50418C22.488 3.61618 22.456 3.80018 22.392 4.05618C21.592 6.69618 20.448 8.79218 18.96 10.3442C17.472 11.8962 15.848 12.9282 14.088 13.4402C14.696 13.5842 15.192 13.8002 15.576 14.0882C15.976 14.3762 16.312 14.7362 16.584 15.1682C16.856 15.5842 17.168 16.1682 17.52 16.9202C18.016 17.9762 18.48 18.7282 18.912 19.1762C19.344 19.6082 19.848 19.8242 20.424 19.8242C20.936 19.8242 21.424 19.6562 21.888 19.3202C22.352 18.9682 22.936 18.3762 23.64 17.5442C23.832 17.3202 24.048 17.2082 24.288 17.2082Z" fill="black"/>
</svg>
