<svg width="37" height="10" viewBox="0 0 37 10" fill="none" xmlns="http://www.w3.org/2000/svg">
<path d="M0.000177622 9V0.272727H1.057V4.60227H1.15927L5.07972 0.272727H6.46041L2.79563 4.21023L6.46041 9H5.182L2.1479 4.94318L1.057 6.17045V9H0.000177622ZM8.1021 9V2.45455H9.10778V9H8.1021ZM8.61346 1.36364C8.41744 1.36364 8.2484 1.29688 8.10636 1.16335C7.96715 1.02983 7.89755 0.869318 7.89755 0.681818C7.89755 0.494318 7.96715 0.333807 8.10636 0.200284C8.2484 0.0667613 8.41744 0 8.61346 0C8.80948 0 8.9771 0.0667613 9.1163 0.200284C9.25835 0.333807 9.32937 0.494318 9.32937 0.681818C9.32937 0.869318 9.25835 1.02983 9.1163 1.16335C8.9771 1.29688 8.80948 1.36364 8.61346 1.36364ZM15.5861 3.92045L14.6827 4.17614C14.6259 4.02557 14.5421 3.87926 14.4313 3.73722C14.3233 3.59233 14.1756 3.47301 13.9881 3.37926C13.8006 3.28551 13.5605 3.23864 13.2679 3.23864C12.8674 3.23864 12.5336 3.33097 12.2665 3.51562C12.0023 3.69744 11.8702 3.92898 11.8702 4.21023C11.8702 4.46023 11.9611 4.65767 12.1429 4.80256C12.3248 4.94744 12.6088 5.06818 12.9952 5.16477L13.9668 5.40341C14.552 5.54545 14.9881 5.76278 15.275 6.0554C15.562 6.34517 15.7054 6.71875 15.7054 7.17614C15.7054 7.55114 15.5975 7.88636 15.3816 8.18182C15.1685 8.47727 14.8702 8.71023 14.4867 8.88068C14.1032 9.05114 13.6571 9.13636 13.1486 9.13636C12.481 9.13636 11.9284 8.99148 11.4909 8.7017C11.0534 8.41193 10.7765 7.98864 10.66 7.43182L11.6145 7.19318C11.7054 7.54545 11.8773 7.80966 12.1301 7.9858C12.3858 8.16193 12.7196 8.25 13.1316 8.25C13.6003 8.25 13.9725 8.15057 14.248 7.9517C14.5265 7.75 14.6657 7.50852 14.6657 7.22727C14.6657 7 14.5861 6.80966 14.427 6.65625C14.2679 6.5 14.0236 6.38352 13.6941 6.30682L12.6032 6.05114C12.0037 5.90909 11.5634 5.68892 11.2821 5.39062C11.0037 5.08949 10.8645 4.71307 10.8645 4.26136C10.8645 3.89205 10.9682 3.56534 11.1756 3.28125C11.3858 2.99716 11.6713 2.77415 12.0321 2.61222C12.3958 2.45028 12.8077 2.36932 13.2679 2.36932C13.9157 2.36932 14.4242 2.51136 14.7935 2.79545C15.1657 3.07955 15.4299 3.45455 15.5861 3.92045ZM18.225 5.0625V9H17.2193V0.272727H18.225V3.47727H18.3102C18.4636 3.1392 18.6937 2.87074 19.0005 2.67188C19.3102 2.47017 19.7221 2.36932 20.2363 2.36932C20.6824 2.36932 21.073 2.45881 21.4082 2.63778C21.7434 2.81392 22.0034 3.08523 22.188 3.4517C22.3755 3.81534 22.4693 4.27841 22.4693 4.84091V9H21.4636V4.90909C21.4636 4.3892 21.3287 3.98722 21.0588 3.70312C20.7917 3.41619 20.421 3.27273 19.9466 3.27273C19.617 3.27273 19.3216 3.34233 19.0602 3.48153C18.8017 3.62074 18.5971 3.82386 18.4466 4.09091C18.2988 4.35795 18.225 4.68182 18.225 5.0625ZM26.2353 9.15341C25.8205 9.15341 25.4441 9.07528 25.106 8.91903C24.7679 8.75994 24.4995 8.53125 24.3006 8.23295C24.1017 7.93182 24.0023 7.56818 24.0023 7.14205C24.0023 6.76705 24.0762 6.46307 24.2239 6.23011C24.3716 5.99432 24.5691 5.80966 24.8162 5.67614C25.0634 5.54261 25.3361 5.44318 25.6344 5.37784C25.9355 5.30966 26.2381 5.25568 26.5421 5.21591C26.9398 5.16477 27.2623 5.12642 27.5094 5.10085C27.7594 5.07244 27.9412 5.02557 28.0549 4.96023C28.1713 4.89489 28.2296 4.78125 28.2296 4.61932V4.58523C28.2296 4.16477 28.1145 3.83807 27.8844 3.60511C27.6571 3.37216 27.312 3.25568 26.8489 3.25568C26.3688 3.25568 25.9924 3.3608 25.7196 3.57102C25.4469 3.78125 25.2551 4.00568 25.1444 4.24432L24.1898 3.90341C24.3603 3.50568 24.5875 3.19602 24.8716 2.97443C25.1586 2.75 25.4711 2.59375 25.8091 2.50568C26.15 2.41477 26.4853 2.36932 26.8148 2.36932C27.025 2.36932 27.2665 2.39489 27.5392 2.44602C27.8148 2.49432 28.0804 2.59517 28.3361 2.74858C28.5946 2.90199 28.8091 3.13352 28.9796 3.44318C29.15 3.75284 29.2353 4.16761 29.2353 4.6875V9H28.2296V8.11364H28.1784C28.1103 8.25568 27.9966 8.40767 27.8375 8.5696C27.6784 8.73153 27.4668 8.86932 27.2026 8.98295C26.9384 9.09659 26.6159 9.15341 26.2353 9.15341ZM26.3887 8.25C26.7864 8.25 27.1216 8.17188 27.3944 8.01562C27.6699 7.85938 27.8773 7.65767 28.0165 7.41051C28.1586 7.16335 28.2296 6.90341 28.2296 6.63068V5.71023C28.187 5.76136 28.0932 5.80824 27.9483 5.85085C27.8063 5.89062 27.6415 5.92614 27.454 5.95739C27.2694 5.9858 27.089 6.01136 26.9128 6.03409C26.7395 6.05398 26.5989 6.07102 26.4909 6.08523C26.2296 6.11932 25.9853 6.17472 25.758 6.25142C25.5336 6.32528 25.3517 6.4375 25.2125 6.58807C25.0762 6.7358 25.008 6.9375 25.008 7.19318C25.008 7.54261 25.1373 7.80682 25.3958 7.9858C25.6571 8.16193 25.9881 8.25 26.3887 8.25ZM32.0765 5.0625V9H31.0708V2.45455H32.0424V3.47727H32.1277C32.2811 3.14489 32.514 2.87784 32.8265 2.67614C33.139 2.47159 33.5424 2.36932 34.0368 2.36932C34.4799 2.36932 34.8677 2.46023 35.2001 2.64205C35.5325 2.82102 35.791 3.09375 35.9757 3.46023C36.1603 3.82386 36.2527 4.28409 36.2527 4.84091V9H35.247V4.90909C35.247 4.39489 35.1135 3.99432 34.8464 3.70739C34.5794 3.41761 34.2129 3.27273 33.747 3.27273C33.426 3.27273 33.139 3.34233 32.8862 3.48153C32.6362 3.62074 32.4387 3.82386 32.2939 4.09091C32.149 4.35795 32.0765 4.68182 32.0765 5.0625Z" fill="#111111"/>
</svg>
